{
	"asset":{
		"generator":"Khronos glTF Blender I/O v3.6.28",
		"version":"2.0"
	},
	"scene":0,
	"scenes":[
		{
			"name":"Scene",
			"nodes":[
				0
			]
		}
	],
	"nodes":[
		{
			"mesh":0,
			"name":"Sphere.004",
			"rotation":[
				-0.2860977053642273,
				-0.08011975139379501,
				-0.6079856753349304,
				0.7362623810768127
			],
			"scale":[
				0.6346919536590576,
				0.6346919536590576,
				0.6346919536590576
			],
			"translation":[
				0.005512549076229334,
				-0.057855963706970215,
				-0.01058918610215187
			]
		}
	],
	"materials":[
		{
			"doubleSided":true,
			"name":"Material.001",
			"pbrMetallicRoughness":{
				"metallicFactor":0.4409448802471161,
				"roughnessFactor":0.32283467054367065
			}
		}
	],
	"meshes":[
		{
			"name":"Sphere.002",
			"primitives":[
				{
					"attributes":{
						"POSITION":0,
						"NORMAL":1,
						"TEXCOORD_0":2
					},
					"indices":3,
					"material":0
				}
			]
		}
	],
	"accessors":[
		{
			"bufferView":0,
			"componentType":5126,
			"count":2795,
			"max":[
				2.5362610816955566,
				3.076960563659668,
				1.867397427558899
			],
			"min":[
				-2.4837331771850586,
				-1.811164140701294,
				-2.6890268325805664
			],
			"type":"VEC3"
		},
		{
			"bufferView":1,
			"componentType":5126,
			"count":2795,
			"type":"VEC3"
		},
		{
			"bufferView":2,
			"componentType":5126,
			"count":2795,
			"type":"VEC2"
		},
		{
			"bufferView":3,
			"componentType":5123,
			"count":14400,
			"type":"SCALAR"
		}
	],
	"bufferViews":[
		{
			"buffer":0,
			"byteLength":33540,
			"byteOffset":0,
			"target":34962
		},
		{
			"buffer":0,
			"byteLength":33540,
			"byteOffset":33540,
			"target":34962
		},
		{
			"buffer":0,
			"byteLength":22360,
			"byteOffset":67080,
			"target":34962
		},
		{
			"buffer":0,
			"byteLength":28800,
			"byteOffset":89440,
			"target":34963
		}
	],
	"buffers":[
		{
			"byteLength":118240,
			"uri":"data:application/octet-stream;base64,"
		}
	]
}
